<mxfile host="app.diagrams.net" modified="2023-11-06T01:44:33.041Z" agent="Mozilla/5.0 (Windows NT 10.0; Win64; x64) AppleWebKit/537.36 (KHTML, like Gecko) Chrome/119.0.0.0 Safari/537.36" version="22.0.8" etag="Ekk2Ryn2jjP4qoKdRZ4F" type="github">
  <diagram name="第 1 页" id="aQUYgOa1smJTf6kujqT8">
    <mxGraphModel>
      <root>
        <mxCell id="0" />
        <mxCell id="1" parent="0" />
      </root>
    </mxGraphModel>
  </diagram>
</mxfile>
